<svg width="30" height="30" viewBox="0 0 30 30" fill="none" xmlns="http://www.w3.org/2000/svg">
<rect width="30" height="30" rx="15" fill="#ECC80F"/>
<path d="M13.2955 21.7045C13.6093 21.7045 13.8637 21.4502 13.8637 21.1364C13.8637 20.8226 13.6093 20.5682 13.2955 20.5682C12.9817 20.5682 12.7273 20.8226 12.7273 21.1364C12.7273 21.4502 12.9817 21.7045 13.2955 21.7045Z" fill="#DD0909" stroke="#DD0909" stroke-width="2" stroke-linecap="round" stroke-linejoin="round"/>
<path d="M19.5455 21.7045C19.8593 21.7045 20.1137 21.4502 20.1137 21.1364C20.1137 20.8226 19.8593 20.5682 19.5455 20.5682C19.2317 20.5682 18.9773 20.8226 18.9773 21.1364C18.9773 21.4502 19.2317 21.7045 19.5455 21.7045Z" fill="#DD0909" stroke="#DD0909" stroke-width="2" stroke-linecap="round" stroke-linejoin="round"/>
<path d="M8.75 8.52271H11.0227L12.5455 16.1307C12.5974 16.3922 12.7397 16.6272 12.9475 16.7945C13.1552 16.9617 13.4152 17.0505 13.6818 17.0454H19.2045C19.4712 17.0505 19.7311 16.9617 19.9389 16.7945C20.1466 16.6272 20.289 16.3922 20.3409 16.1307L21.25 11.3636H11.5909" fill="#DD0909"/>
<path d="M8.75 8.52271H11.0227L12.5455 16.1307C12.5974 16.3922 12.7397 16.6272 12.9475 16.7945C13.1552 16.9617 13.4152 17.0505 13.6818 17.0454H19.2045C19.4712 17.0505 19.7311 16.9617 19.9389 16.7945C20.1466 16.6272 20.289 16.3922 20.3409 16.1307L21.25 11.3636H11.5909" stroke="#DD0909" stroke-width="2" stroke-linecap="round" stroke-linejoin="round"/>
</svg>
