<svg width="30" height="30" viewBox="0 0 30 30" fill="none" xmlns="http://www.w3.org/2000/svg">
<rect width="30" height="30" rx="15" fill="#FFD600"/>
<path d="M21.1734 11.4591C20.9639 10.9779 20.6619 10.5418 20.2842 10.1753C19.9063 9.80763 19.4606 9.51549 18.9716 9.31471C18.4644 9.10569 17.9205 8.9987 17.3714 8.99995C16.601 8.99995 15.8493 9.20927 15.1961 9.60466C15.0399 9.69924 14.8914 9.80313 14.7508 9.91632C14.6101 9.80313 14.4617 9.69924 14.3054 9.60466C13.6522 9.20927 12.9006 8.99995 12.1302 8.99995C11.5754 8.99995 11.0378 9.10539 10.53 9.31471C10.0393 9.51628 9.59706 9.80623 9.21733 10.1753C8.83915 10.5414 8.53706 10.9776 8.32816 11.4591C8.11095 11.9599 8 12.4918 8 13.0391C8 13.5554 8.10626 14.0935 8.31722 14.6408C8.49381 15.0982 8.74696 15.5727 9.07044 16.0518C9.58299 16.81 10.2878 17.6008 11.1629 18.4024C12.613 19.7312 14.0491 20.6491 14.1101 20.6863L14.4804 20.922C14.6445 21.0259 14.8555 21.0259 15.0196 20.922L15.3899 20.6863C15.4509 20.6476 16.8854 19.7312 18.3371 18.4024C19.2122 17.6008 19.917 16.81 20.4295 16.0518C20.753 15.5727 21.0077 15.0982 21.1828 14.6408C21.3937 14.0935 21.5 13.5554 21.5 13.0391C21.5015 12.4918 21.3906 11.9599 21.1734 11.4591Z" fill="black"/>
</svg>
