<svg width="20" height="21" viewBox="0 0 20 21" fill="none" xmlns="http://www.w3.org/2000/svg">
<path fill-rule="evenodd" clip-rule="evenodd" d="M0 10.4114C0 4.99043 4.579 0.41143 10 0.41143C15.421 0.41143 20 4.99043 20 10.4114C20 13.6014 18.408 16.4894 16 18.3354V18.4114H15.898C14.23 19.6564 12.187 20.4114 10 20.4114C7.813 20.4114 5.77 19.6564 4.102 18.4114H4V18.3354C1.592 16.4894 0 13.6004 0 10.4114ZM7.12347 15.6474C6.59154 16.0754 6.22136 16.6718 6.074 17.3384C7.242 18.0154 8.584 18.4114 10 18.4114C11.416 18.4114 12.758 18.0154 13.926 17.3384C13.7785 16.6719 13.4082 16.0755 12.8764 15.6476C12.3445 15.2197 11.6827 14.9858 11 14.9844H9C8.3173 14.9856 7.6554 15.2195 7.12347 15.6474ZM13.7677 13.8231C14.5877 14.3688 15.2286 15.1443 15.61 16.0524C17.077 14.5934 18 12.5874 18 10.4114C18 6.07443 14.337 2.41143 10 2.41143C5.663 2.41143 2 6.07443 2 10.4114C2 12.5874 2.923 14.5934 4.39 16.0524C4.77144 15.1443 5.41227 14.3688 6.23227 13.8231C7.05227 13.2774 8.01501 12.9857 9 12.9844H11C11.985 12.9857 12.9477 13.2774 13.7677 13.8231ZM5.99997 8.41143C5.99997 6.13143 7.71997 4.41143 9.99997 4.41143C12.28 4.41143 14 6.13143 14 8.41143C14 10.6914 12.28 12.4114 9.99997 12.4114C7.71997 12.4114 5.99997 10.6914 5.99997 8.41143ZM7.99997 8.41143C7.99997 9.58943 8.82197 10.4114 9.99997 10.4114C11.178 10.4114 12 9.58943 12 8.41143C12 7.23343 11.178 6.41143 9.99997 6.41143C8.82197 6.41143 7.99997 7.23343 7.99997 8.41143Z" fill="#9B9B9B"/>
</svg>
